HIERARCHY
ROOT Hips
{
	OFFSET 0.000000 0.000000 0.000000
	CHANNELS 6 Xposition Yposition Zposition Xrotation Yrotation Zrotation
	JOINT LeftUpLeg_virtual
	{
		OFFSET 0.000000 0.000000 0.000000
		CHANNELS 3 Xrotation Yrotation Zrotation
		JOINT LeftUpLeg
		{
			OFFSET 10.205400 -3.823500 0.155100
			CHANNELS 3 Xrotation Yrotation Zrotation
			JOINT LeftLeg
			{
				OFFSET 0.708757 -12.982077 0.567790
				CHANNELS 3 Xrotation Yrotation Zrotation
				JOINT LeftFoot
				{
					OFFSET -0.708756 -10.717838 -2.184338
					CHANNELS 3 Xrotation Yrotation Zrotation
					JOINT LeftToeBase
					{
						OFFSET 0.108149 -7.191104 7.560241
						CHANNELS 3 Xrotation Yrotation Zrotation
						JOINT LeftToe_End
						{
							OFFSET 0.070230 0.081724 4.490308
							CHANNELS 3 Xrotation Yrotation Zrotation
							End Site
							{
								OFFSET 0 0 0
							}
						}
					}
				}
			}
		}
	}
	JOINT RightUpLeg_virtual
	{
		OFFSET 0.000000 0.000000 0.000000
		CHANNELS 3 Xrotation Yrotation Zrotation
		JOINT RightUpLeg
		{
			OFFSET -10.205400 -3.823500 0.005500
			CHANNELS 3 Xrotation Yrotation Zrotation
			JOINT RightLeg
			{
				OFFSET -0.708756 -12.982134 0.610632
				CHANNELS 3 Xrotation Yrotation Zrotation
				JOINT RightFoot
				{
					OFFSET 0.708754 -10.717769 -1.945823
					CHANNELS 3 Xrotation Yrotation Zrotation
					JOINT RightToeBase
					{
						OFFSET -0.108140 -7.191069 7.372968
						CHANNELS 3 Xrotation Yrotation Zrotation
						JOINT RightToe_End
						{
							OFFSET -0.070227 0.081735 4.479403
							CHANNELS 3 Xrotation Yrotation Zrotation
							End Site
							{
								OFFSET 0 0 0
							}
						}
					}
				}
			}
		}
	}
	JOINT Spine_virtual
	{
		OFFSET 0.000000 0.000000 0.000000
		CHANNELS 3 Xrotation Yrotation Zrotation
		JOINT Spine
		{
			OFFSET 0.000000 6.876099 0.125700
			CHANNELS 3 Xrotation Yrotation Zrotation
			JOINT Spine1
			{
				OFFSET 0.000000 5.730043 0.104720
				CHANNELS 3 Xrotation Yrotation Zrotation
				JOINT Spine1_split
				{
					OFFSET 0.000000 5.730043 0.104720
					CHANNELS 3 Xrotation Yrotation Zrotation
					JOINT Spine2
					{
						OFFSET 0.000000 5.730043 0.104720
						CHANNELS 3 Xrotation Yrotation Zrotation
						JOINT Neck_virtual
						{
							OFFSET 0.000000 0.000000 0.000000
							CHANNELS 3 Xrotation Yrotation Zrotation
							JOINT Neck
							{
								OFFSET 0.000000 10.314075 0.188496
								CHANNELS 3 Xrotation Yrotation Zrotation
								JOINT Head
								{
									OFFSET 0.000000 7.643700 -2.377400
									CHANNELS 3 Xrotation Yrotation Zrotation
									JOINT HeadTop_End
									{
										OFFSET 0.000000 43.788605 -13.619600
										CHANNELS 3 Xrotation Yrotation Zrotation
										End Site
										{
											OFFSET 0 0 0
										}
									}
								}
							}
						}
						JOINT LeftShoulder_virtual
						{
							OFFSET 0.000000 0.000000 0.000000
							CHANNELS 3 Xrotation Yrotation Zrotation
							JOINT LeftShoulder
							{
								OFFSET 2.196100 4.412489 0.087492
								CHANNELS 3 Xrotation Yrotation Zrotation
								JOINT LeftShoulder_split
								{
									OFFSET 2.196100 4.412489 0.087492
									CHANNELS 3 Xrotation Yrotation Zrotation
									JOINT LeftArm
									{
										OFFSET 8.771219 -2.981674 -0.026999
										CHANNELS 3 Xrotation Yrotation Zrotation
										JOINT LeftForeArm
										{
											OFFSET 8.512804 0.000000 -0.000000
											CHANNELS 3 Xrotation Yrotation Zrotation
											JOINT LeftHand
											{
												OFFSET 18.484802 0.000000 -0.000000
												CHANNELS 3 Xrotation Yrotation Zrotation
												End Site
												{
													OFFSET 0 0 0
												}
											}
										}
									}
								}
							}
						}
						JOINT RightShoulder_virtual
						{
							OFFSET 0.000000 0.000000 0.000000
							CHANNELS 3 Xrotation Yrotation Zrotation
							JOINT RightShoulder
							{
								OFFSET -2.196100 4.412496 0.070690
								CHANNELS 3 Xrotation Yrotation Zrotation
								JOINT RightShoulder_split
								{
									OFFSET -2.196100 4.412496 0.070690
									CHANNELS 3 Xrotation Yrotation Zrotation
									JOINT RightArm
									{
										OFFSET -8.771282 -2.981682 -0.094208
										CHANNELS 3 Xrotation Yrotation Zrotation
										JOINT RightForeArm
										{
											OFFSET -8.494598 0.000000 0.000000
											CHANNELS 3 Xrotation Yrotation Zrotation
											JOINT RightHand
											{
												OFFSET -18.483803 0.000000 0.000001
												CHANNELS 3 Xrotation Yrotation Zrotation
												End Site
												{
													OFFSET 0 0 0
												}
											}
										}
									}
								}
							}
						}
					}
				}
			}
		}
	}
}
MOTION
Frames: 8
Frame Time: 0.03333333
0.052964 30.546179 0.338129 0.000000 0.000000 0.000000 -3.883384 -15.650378 -1.945565 -33.417827 17.137050 13.374641 50.673453 -1.390810 11.039446 -21.025532 4.387786 -10.866845 -0.505199 -0.162545 -1.260508 0.000000 0.000000 0.000000 -4.541812 -14.250249 -1.691601 -23.345909 -22.739798 -13.387232 47.890305 -3.774488 -16.701078 -20.187970 -3.883088 15.158266 -3.339808 1.203344 0.088865 0.000000 0.000000 0.000000 -2.962964 -17.186458 -1.925866 4.338012 2.805072 2.095862 2.832887 2.031694 -0.047082 1.673434 -0.459714 0.122087 0.000000 0.000000 0.000000 2.881789 1.799107 -0.041595 1.040902 -0.177277 4.533255 0.259785 9.665694 1.393164 0.000000 0.000000 0.000000 2.750295 1.973403 -0.221429 -0.021862 -4.055134 17.246033 -1.780607 -0.112320 -0.528327 -66.853420 -43.246705 -62.482058 -0.938489 -34.194338 0.743395 0.000000 0.000000 0.000000 3.192289 1.925016 -0.092930 -0.357200 -3.392615 -5.142254 0.735058 0.726471 0.636812 -104.169920 58.826862 95.705505 -1.539077 29.822846 0.431729 0.000000 0.000000 0.000000 
0.044964 30.527988 0.334270 0.000000 0.000000 0.000000 -3.806930 -15.679751 -1.913490 -33.493605 17.185196 13.271374 50.605643 -1.396475 11.074258 -20.961086 4.336669 -10.911803 -0.529572 -0.143604 -1.273039 0.000000 0.000000 0.000000 -4.524157 -14.198356 -1.664265 -23.325205 -22.758011 -13.413453 48.234082 -3.850453 -16.637294 -20.461746 -3.906940 15.168431 -2.841538 1.172947 -0.004413 0.000000 0.000000 0.000000 -2.954746 -17.038453 -1.994199 4.340014 2.775689 2.036041 2.849832 2.023095 -0.077882 1.559968 -0.141017 -0.009727 0.000000 0.000000 0.000000 2.801828 1.777059 -0.066025 0.893517 -0.297916 4.564476 0.465138 9.708978 1.373489 0.000000 0.000000 0.000000 2.760602 1.952846 -0.234918 -0.075653 -3.909982 17.169866 -1.786886 -0.107177 -0.416933 -66.794209 -43.460514 -62.579272 -0.893924 -34.491957 0.801960 0.000000 0.000000 0.000000 3.256984 1.926754 -0.110626 -0.335976 -3.293793 -5.239325 0.741625 0.691430 0.607435 -104.152653 59.345383 95.872305 -1.407500 29.551602 0.397192 0.000000 0.000000 0.000000 
0.042910 30.509741 0.330257 0.000000 0.000000 0.000000 -3.715440 -15.774252 -1.844683 -33.610575 17.299478 13.110518 50.545913 -1.389107 11.195575 -20.734940 4.233841 -11.104675 -0.486475 -0.109826 -1.321036 0.000000 0.000000 0.000000 -4.494134 -14.328776 -1.603662 -23.381042 -22.771173 -13.426739 48.434487 -3.965083 -16.560823 -20.490749 -3.992287 15.200205 -2.708974 1.064783 -0.123701 0.000000 0.000000 0.000000 -2.973451 -16.873014 -2.044242 4.264644 2.709851 1.926431 2.803529 2.052737 -0.121081 1.320974 -0.128344 -0.131433 0.000000 0.000000 0.000000 2.753432 1.799821 -0.113411 0.787293 -0.500453 4.764571 0.890959 9.555728 1.534923 0.000000 0.000000 0.000000 2.758318 1.974212 -0.270238 -0.158268 -3.618678 17.001502 -1.704724 -0.093068 -0.405867 -66.603702 -43.947370 -62.618901 -0.927901 -34.971354 0.751686 0.000000 0.000000 0.000000 3.288807 1.961354 -0.140905 -0.267145 -3.066484 -5.390924 0.553093 0.630116 0.401402 -103.915700 60.021039 96.177342 -1.237058 29.344658 0.321209 0.000000 0.000000 0.000000 
0.044528 30.501030 0.330221 0.000000 0.000000 0.000000 -3.614754 -15.968436 -1.763460 -33.738980 17.475351 12.985473 50.445988 -1.352066 11.368008 -20.449539 4.120185 -11.348396 -0.395376 -0.061575 -1.386785 0.000000 0.000000 0.000000 -4.394346 -14.634568 -1.523442 -23.462038 -22.747518 -13.369218 48.410352 -4.072424 -16.504498 -20.259755 -4.087046 15.211878 -2.957899 0.895139 -0.167436 0.000000 0.000000 0.000000 -2.994248 -16.818721 -2.059367 4.111986 2.610123 1.808314 2.700761 2.094332 -0.170520 1.016139 -0.386803 -0.087142 0.000000 0.000000 0.000000 2.730009 1.851046 -0.170640 0.725627 -0.739528 5.081373 1.389848 9.315175 1.822854 0.000000 0.000000 0.000000 2.729918 2.020663 -0.322734 -0.256546 -3.225808 16.726863 -1.509741 -0.110602 -0.482268 -66.350513 -44.709732 -62.719469 -0.995591 -35.403452 0.598384 0.000000 0.000000 0.000000 3.279716 2.008877 -0.177547 -0.158532 -2.758281 -5.601145 0.354066 0.530951 0.197034 -103.496723 60.676552 96.552319 -1.057784 29.298698 0.221212 0.000000 0.000000 0.000000 
0.044445 30.499580 0.336077 0.000000 0.000000 0.000000 -3.536403 -16.269813 -1.699507 -33.876454 17.668176 12.928765 50.347319 -1.273251 11.561205 -20.135912 4.044932 -11.526211 -0.276562 -0.000958 -1.450265 0.000000 0.000000 0.000000 -4.205204 -15.026459 -1.450504 -23.524104 -22.648035 -13.202005 48.225097 -4.204137 -16.482496 -19.939750 -4.159604 15.003690 -3.087510 0.695449 -0.049002 0.000000 0.000000 0.000000 -2.913808 -16.922555 -2.029696 3.908964 2.501874 1.710565 2.564990 2.126143 -0.216268 0.907011 -0.708996 0.033533 0.000000 0.000000 0.000000 2.713153 1.895177 -0.222399 0.687734 -0.966800 5.390565 1.772315 9.089747 2.153545 0.000000 0.000000 0.000000 2.666689 2.062373 -0.377580 -0.367802 -2.781073 16.400515 -1.422965 -0.128888 -0.639960 -66.136209 -45.682002 -62.922715 -1.028024 -35.713512 0.424405 0.000000 0.000000 0.000000 3.219509 2.044424 -0.210905 -0.030449 -2.412425 -5.855335 0.174276 0.393596 0.001904 -103.056818 61.156722 96.892053 -0.912843 29.414281 0.172869 0.000000 0.000000 0.000000 
0.051024 30.504517 0.331797 0.000000 0.000000 0.000000 -3.503877 -16.639915 -1.670516 -33.963201 17.847506 12.925627 50.313233 -1.144795 11.740977 -19.866544 4.030022 -11.537395 -0.152862 0.059765 -1.513526 0.000000 0.000000 0.000000 -4.004284 -15.415915 -1.409228 -23.677945 -22.493104 -12.993964 48.037509 -4.391439 -16.490160 -19.640943 -4.192049 14.569499 -2.909248 0.508172 0.215514 0.000000 0.000000 0.000000 -2.749611 -17.211938 -1.971063 3.737205 2.402801 1.637371 2.414561 2.130714 -0.258216 1.054978 -1.002171 0.200094 0.000000 0.000000 0.000000 2.690856 1.914991 -0.251309 0.645932 -1.155220 5.613899 1.934149 8.964046 2.433950 0.000000 0.000000 0.000000 2.572645 2.072621 -0.423852 -0.484293 -2.312184 16.058825 -1.322563 0.016248 -0.820352 -66.077395 -46.813317 -63.273718 -0.936710 -35.922676 0.305344 0.000000 0.000000 0.000000 3.111384 2.051334 -0.233750 0.086659 -2.103609 -6.181688 0.094057 0.350741 -0.160063 -102.579278 61.313720 96.946298 -0.813595 29.380018 0.200054 0.000000 0.000000 0.000000 
0.065306 30.512934 0.292036 0.000000 0.000000 0.000000 -3.512426 -16.952326 -1.667554 -34.036294 18.040888 12.943954 50.398812 -0.943968 11.867455 -19.715297 4.073406 -11.360051 -0.061971 0.111848 -1.564574 0.000000 0.000000 0.000000 -3.848229 -15.741955 -1.393427 -23.986622 -22.335040 -12.846835 48.019669 -4.574462 -16.532488 -19.411353 -4.152120 14.178356 -2.637183 0.372924 0.459638 0.000000 0.000000 0.000000 -2.515016 -17.621282 -1.909652 3.649845 2.362631 1.587650 2.271165 2.118174 -0.284832 1.159010 -1.180697 0.326030 0.000000 0.000000 0.000000 2.648560 1.907710 -0.253051 0.583644 -1.275581 5.688478 1.918443 8.973450 2.596388 0.000000 0.000000 0.000000 2.472392 2.060836 -0.450314 -0.589739 -1.850505 15.741405 -1.162432 0.318693 -1.020603 -66.104149 -48.041628 -63.733813 -0.621854 -35.977803 0.321321 0.000000 0.000000 0.000000 2.962865 2.036382 -0.244772 0.150226 -1.869218 -6.561378 0.203408 0.524791 -0.244464 -101.989225 61.109812 96.574633 -0.745134 28.984099 0.290344 0.000000 0.000000 0.000000 
0.081343 30.514788 0.245678 0.000000 0.000000 0.000000 -3.551531 -17.101585 -1.682861 -34.148388 18.204534 12.939218 50.601894 -0.743292 11.943494 -19.617589 4.129529 -11.153970 -0.092022 0.149545 -1.580245 0.000000 0.000000 0.000000 -3.783348 -15.933327 -1.391124 -24.433894 -22.225958 -12.819819 48.298648 -4.706440 -16.598278 -19.187945 -4.036955 14.103683 -2.529355 0.310822 0.514872 0.000000 0.000000 0.000000 -2.223681 -18.012583 -1.844579 3.658143 2.408243 1.545441 2.156334 2.108645 -0.290071 1.245895 -1.246695 0.312372 0.000000 0.000000 0.000000 2.594393 1.889144 -0.235507 0.527390 -1.336732 5.589341 1.858646 9.064166 2.638978 0.000000 0.000000 0.000000 2.409945 2.039997 -0.450537 -0.664869 -1.463062 15.517845 -0.980609 0.726222 -1.143238 -66.019256 -49.290996 -64.148536 -0.128832 -35.791363 0.467677 0.000000 0.000000 0.000000 2.819887 2.019266 -0.242883 0.156262 -1.732757 -6.933251 0.360797 0.783665 -0.196560 -101.433541 60.667093 95.996512 -0.699911 28.306541 0.412111 0.000000 0.000000 0.000000 
